<?xml version="1.0" encoding="utf-8"?>
<!-- Generator: Adobe Illustrator 24.0.1, SVG Export Plug-In . SVG Version: 6.00 Build 0)  -->
<svg version="1.1" id="Layer_1" xmlns="http://www.w3.org/2000/svg" xmlns:xlink="http://www.w3.org/1999/xlink" x="0px" y="0px"
	 viewBox="0 0 163.3 171.19" style="enable-background:new 0 0 163.3 171.19;" xml:space="preserve">
<style type="text/css">
	.st0{fill:#4D4D4D;}
	.st1{fill-rule:evenodd;clip-rule:evenodd;fill:#4D4D4D;}
	.st2{fill-rule:evenodd;clip-rule:evenodd;fill:#FFFFFF;}
</style>
<g>
	<path class="st0" d="M45.97,134.49h-0.72l-3.25-7.7c-0.45-1.06-0.9-2.21-1.35-3.46h-0.08c0.09,1.79,0.13,3.43,0.13,4.92v6.23h-1.57
		V121.6h2.26l3.04,7.29c0.35,0.84,0.73,1.84,1.15,3.02h0.05c0.46-1.3,0.84-2.31,1.15-3.02l3.04-7.29h2.26v12.89h-1.57v-6.23
		c0-1.46,0.04-3.1,0.13-4.92h-0.08c-0.48,1.32-0.92,2.47-1.35,3.46L45.97,134.49z"/>
	<path class="st0" d="M56.93,129.15v5.34h-1.57V121.6h3.34c0.56,0,1.04,0.02,1.44,0.06c0.39,0.04,0.76,0.11,1.08,0.2
		c0.9,0.24,1.58,0.66,2.06,1.25c0.47,0.59,0.71,1.32,0.71,2.2c0,0.52-0.08,0.99-0.25,1.4c-0.17,0.41-0.4,0.77-0.7,1.07
		c-0.3,0.3-0.66,0.55-1.08,0.74c-0.42,0.19-0.89,0.33-1.4,0.42v0.04l3.82,5.51H62.8l-3.97-5.34H56.93z M56.93,123.01v4.72h1.55
		c0.48,0,0.89-0.02,1.23-0.05c0.34-0.03,0.65-0.09,0.92-0.17c0.55-0.17,0.97-0.43,1.26-0.8c0.3-0.37,0.44-0.84,0.44-1.44
		c-0.01-0.55-0.15-1-0.42-1.33c-0.28-0.34-0.66-0.58-1.15-0.73c-0.23-0.07-0.51-0.12-0.83-0.15c-0.32-0.03-0.73-0.05-1.22-0.05
		H56.93z"/>
	<path class="st0" d="M68.29,125.01c0,0.38,0.08,0.69,0.23,0.94c0.15,0.25,0.36,0.45,0.62,0.61c0.26,0.16,0.56,0.29,0.9,0.39
		c0.34,0.1,0.7,0.2,1.07,0.29c0.5,0.12,0.99,0.26,1.48,0.4c0.48,0.15,0.91,0.35,1.29,0.61c0.38,0.26,0.68,0.6,0.92,1.02
		c0.23,0.42,0.35,0.95,0.35,1.61c0,0.67-0.13,1.24-0.38,1.73c-0.25,0.49-0.6,0.88-1.05,1.2c-0.45,0.31-0.98,0.54-1.59,0.69
		c-0.61,0.15-1.28,0.23-2,0.23c-0.33,0-0.68-0.02-1.03-0.06c-0.35-0.04-0.68-0.1-1-0.17c-0.32-0.07-0.61-0.15-0.86-0.24
		c-0.26-0.09-0.46-0.18-0.61-0.27v-1.44c0.23,0.12,0.49,0.22,0.78,0.32c0.29,0.1,0.59,0.18,0.9,0.25c0.31,0.07,0.62,0.12,0.93,0.16
		c0.31,0.04,0.61,0.06,0.89,0.06c0.45,0,0.88-0.04,1.29-0.12c0.41-0.08,0.77-0.21,1.07-0.39c0.31-0.18,0.55-0.43,0.73-0.74
		c0.18-0.31,0.27-0.7,0.27-1.17c0-0.39-0.08-0.7-0.24-0.95c-0.16-0.25-0.37-0.46-0.63-0.62c-0.26-0.16-0.57-0.3-0.91-0.4
		s-0.71-0.2-1.08-0.29c-0.5-0.12-0.99-0.25-1.47-0.39c-0.48-0.14-0.91-0.35-1.28-0.6c-0.38-0.26-0.68-0.59-0.91-0.99
		c-0.23-0.4-0.34-0.92-0.34-1.55c0-0.66,0.12-1.22,0.36-1.69c0.24-0.47,0.56-0.86,0.97-1.17c0.41-0.31,0.88-0.54,1.41-0.68
		c0.53-0.15,1.1-0.22,1.71-0.22c0.69,0,1.33,0.07,1.92,0.2c0.59,0.13,1.14,0.3,1.63,0.52v1.45c-0.53-0.22-1.08-0.41-1.65-0.55
		c-0.57-0.14-1.18-0.22-1.83-0.22c-0.49,0-0.91,0.05-1.27,0.16c-0.36,0.11-0.66,0.26-0.9,0.45c-0.24,0.2-0.41,0.43-0.53,0.71
		C68.35,124.36,68.29,124.67,68.29,125.01z"/>
	<path class="st0" d="M79.71,134.49l5.25-12.89h1.36l5.25,12.89h-1.71l-1.54-3.88h-5.39l-1.54,3.88H79.71z M85.62,123.6
		c-0.58,1.6-1.12,3.06-1.65,4.37l-0.48,1.21h4.27l-0.49-1.21c-0.53-1.33-1.07-2.79-1.62-4.38H85.62z"/>
	<path class="st0" d="M101.78,129.28h-2.94v-1.42h4.51v6.23c-0.13,0.07-0.33,0.14-0.59,0.22c-0.26,0.07-0.56,0.14-0.89,0.21
		c-0.33,0.06-0.69,0.12-1.07,0.15c-0.38,0.04-0.76,0.06-1.13,0.06c-1.11,0-2.08-0.15-2.92-0.45c-0.85-0.3-1.55-0.73-2.13-1.28
		c-0.57-0.55-1-1.22-1.3-2.01c-0.3-0.79-0.44-1.67-0.44-2.64c0-1.05,0.16-2.01,0.49-2.87c0.32-0.86,0.79-1.6,1.41-2.21
		c0.61-0.61,1.36-1.08,2.23-1.41c0.87-0.33,1.83-0.5,2.88-0.5c0.28,0,0.57,0.01,0.85,0.03c0.28,0.02,0.55,0.05,0.81,0.1
		c0.26,0.04,0.49,0.09,0.71,0.15c0.22,0.06,0.4,0.12,0.55,0.18v1.39c-0.39-0.13-0.83-0.24-1.33-0.32c-0.5-0.09-1-0.13-1.5-0.13
		c-0.73,0-1.43,0.11-2.1,0.33c-0.66,0.22-1.25,0.56-1.76,1.01c-0.51,0.45-0.91,1.01-1.21,1.69c-0.3,0.68-0.45,1.47-0.45,2.39
		c0,0.89,0.13,1.66,0.38,2.31c0.25,0.65,0.61,1.18,1.06,1.61c0.46,0.42,1.02,0.74,1.67,0.94s1.38,0.3,2.18,0.3
		c0.37,0,0.74-0.02,1.1-0.06c0.36-0.04,0.68-0.09,0.96-0.16V129.28z"/>
	<path class="st0" d="M106.53,134.49V121.6h1.57v12.89H106.53z"/>
	<path class="st0" d="M112.95,121.6v11.48h6.29v1.42h-7.86V121.6H112.95z"/>
	<path class="st0" d="M123.22,133.07h6.61v1.42h-8.18V121.6h7.82v1.42h-6.25v4.16h5.56v1.42h-5.56V133.07z"/>
</g>
<g>
	<circle class="st1" cx="82.81" cy="80.5" r="28.13"/>
	<path class="st2" d="M99.21,61.86c0.02,0.07,0.03,0.14,0.02,0.19c-0.01,0.12-0.51,1.45-0.54,1.52c-0.04,0.07-0.24,0.22-0.27,0.31
		c-0.03,0.09,0.03,0.99-0.02,1.08c-0.05,0.09-0.17,0.14-0.25,0.13c-0.07-0.01-0.35-0.09-0.4-0.06c-0.05,0.02-0.11,0.3-0.15,0.34
		c-0.04,0.04-0.1,0.06-0.13,0.09c-0.03,0.03-0.01,0.12-0.04,0.19c-0.03,0.07-0.23,0.09-0.27,0.15c-0.05,0.06-0.24,0.37-0.31,0.46
		c-0.07,0.09-0.29,0.1-0.45,0.06c-0.07-0.02-0.3-0.26-0.57-0.56c-0.15,0.1-0.29,0.33-0.21,0.8l0.06,0.39
		c0.77-0.01,1.52,0.43,2.02,1.16c0,0,2.77,0.6,4.06,2.4c0.33-0.68,1.25-1.74,1.53-2.5c0.29-0.76,0.39-1.2,0.48-1.62v0
		c0.02-0.09,0.04-0.17,0.06-0.25c0.01-0.12-0.01-0.26-0.09-0.38c-0.18-0.28-0.33-0.75-0.3-0.97c0.03-0.22,0.1-0.62,0.04-0.79
		c-0.05-0.17-0.11-0.36,0.01-0.37c0.12-0.01,0.25,0.11,0.25,0.11s-0.03-0.48,0.07-0.59c0.1-0.11,0.38-0.17,0.46-0.15
		c0.08,0.02,0.13,0.16,0.13,0.16s0.05-0.09,0.1-0.11c0.04-0.02,0.29,0,0.38,0.04c0.08,0.04,0.17,0.22,0.17,0.22s0.06-0.05,0.12-0.07
		c0.06-0.02,0.35,0.07,0.4,0.1c0.05,0.03,0.13,0.22,0.13,0.22c0.15-0.03,0.35,0.1,0.37,0.25c0.02,0.15-0.12,0.97-0.22,1.26
		c-0.1,0.29-0.42,0.7-0.42,0.7l-0.16,0.62c0.03,2.51-1.28,6.65-1.6,7.06c-0.35,0.45-1.3,0.55-1.3,0.55l0-0.01
		c-0.51,0.06-1.21-0.23-1.9-0.91c-1.8-0.35-3.34-1.23-4.37-2.24c-1.04,1.37-3.05,2.74-4.44,3.02c0,0-1.76,2.23-3.26,3.02
		c1.92,1.61,4.99,4.6,6.21,8.02c0,0,0.29,0.85-0.38,1.66c0,0-0.01,0.01-0.01,0.01c-0.83,1.1-2.91,2.4-4.96,3.19
		c-2.54,0.99-6.25,3.18-6.7,3.33c-0.05,0.02-0.09,0.03-0.13,0.04c0.04,0.05,0.06,0.1,0.06,0.15c0,0.21-0.56,0.54-0.56,0.54
		s0.04,0.15-0.04,0.27c-0.08,0.12-1.29,1.44-1.39,2.46c-0.09,1.02-0.4,1.02-0.4,1.02s-0.04,0.08-0.08,0.08
		c-0.04,0-0.4-0.05-0.47-0.1c-0.07-0.05-0.33-0.41-0.35-0.45c-0.02-0.04,0.01-0.09,0.01-0.1c0-0.01-0.05,0.01-0.06-0.01
		c-0.01-0.01-0.17-0.28-0.18-0.37c0,0,0-0.03,0.01-0.05c0.01-0.02,0.01-0.02,0.01-0.03c0-0.01-0.05,0.01-0.05,0
		c-0.01,0-0.12-0.19-0.13-0.44c-0.01-0.25,0.07-1.14,0.13-1.54c0.05-0.4,0.39-2.99,0.43-3.27c0.04-0.28,0.34-1.1,0.68-1.31
		c0,0,0.14-0.07,0.24,0.01c0,0,0.1-0.01,0.16,0.04c0.07,0.04,0.38,0.18,0.52,0.24c0,0,0.04,0.03,0.03,0.08c0,0,0.56,0.08,1.03,0.34
		c0.84-0.53,2.04-1.42,3.51-2.92c1.31-1.34,2.87-2.1,4.18-2.52c-0.24-0.32-0.44-0.69-0.57-1.11c0,0-2.45-0.95-4.76-2.75
		c-1.36,1.75-4.03,4.79-7.22,6.35c-0.9,1.07-2.67,2.29-4.43,3.11c-2.47,1.16-6.02,3.59-6.47,3.77l0,0
		c-0.01,0.44-1.73,1.81-1.73,1.81s0,0.16-0.12,0.27c-0.12,0.1-1.72,1.14-2.09,2.17c-0.37,1.03-0.68,0.95-0.68,0.95
		s-0.06,0.07-0.1,0.07c-0.04-0.01-0.4-0.16-0.46-0.23c-0.06-0.07-0.23-0.51-0.24-0.56c0-0.05,0.04-0.09,0.04-0.1
		c0-0.01-0.05-0.01-0.06-0.02c-0.01-0.02-0.1-0.33-0.09-0.43c0,0,0.01-0.03,0.03-0.05c0.02-0.02,0.02-0.02,0.02-0.02
		c0-0.01-0.05-0.01-0.06-0.01c-0.01-0.01-0.07-0.23-0.01-0.49c0.06-0.26,0.38-1.16,0.54-1.55c0.16-0.4,1.16-2.79,1.27-3.07
		c0.11-0.28,0.64-1.05,1.05-1.17c0,0,0.17-0.03,0.25,0.07c0,0,0.1,0.02,0.16,0.08c0.06,0.06,0.39,0.09,0.51,0.18
		c0,0,0.04,0.04,0.01,0.09c0,0,0.3-0.17,0.62-0.02c0.79-0.54,2.11-1.54,3.76-3.47c1.76-2.05,4.1-2.93,5.5-3.28
		c0.74-2.91,4.05-7.42,6.35-9.53c0.45-2.49,3.35-3.68,3.35-3.68l0,0c0.31-0.25,0.62-0.49,0.77-0.58c0,0,1.43-2.6,2.03-3.17
		c-0.05-0.43-0.05-0.83,0-1.21c-1.71-0.18-3.2-1.76-3.2-1.76c-0.34,0.62-1.59,1.34-3.63,2.24c-1.96,0.86-2.76,1.4-3.36,1.58
		c-0.07,0.08-0.12,0.18-0.14,0.3c-0.05,0.34-0.25,0.81-0.42,0.97c-0.17,0.16-0.5,0.42-0.57,0.59c-0.07,0.17-0.15,0.36-0.26,0.28
		c-0.1-0.08-0.13-0.26-0.13-0.26s-0.3,0.4-0.45,0.42c-0.15,0.02-0.41-0.12-0.46-0.19c-0.05-0.07,0.01-0.21,0.01-0.21
		s-0.1,0.03-0.15,0.02c-0.05-0.01-0.23-0.2-0.27-0.29c-0.04-0.09,0.02-0.29,0.02-0.29s-0.08,0-0.14-0.03
		c-0.06-0.03-0.23-0.29-0.25-0.35c-0.02-0.06,0.04-0.26,0.04-0.26c-0.14-0.08-0.21-0.32-0.12-0.45c0.09-0.13,0.75-0.68,1.02-0.84
		c0.27-0.16,0.8-0.27,0.8-0.27l0.45-0.32c0.33-0.4,1.08-1.03,2.24-2c1.64-1.38,2.42-2.86,4.49-3.48c2.07-0.62,5.98,0.55,5.98,0.55
		c1.42-0.17,2.14,0.64,2.14,0.64v0c0.45-0.04,0.92-0.01,1.37,0.1c0.04-0.03,0.1-0.04,0.17-0.04c1.08-0.07,1.6-0.75,1.6-0.75
		l0.08-0.13c-0.13-0.06-0.23-0.13-0.26-0.18c-0.07-0.15-0.5-1.78-0.48-1.82c0.02-0.04,0.12-0.28,0.11-0.31
		c-0.02-0.03-0.12-0.13-0.13-0.17c-0.02-0.04-0.04-0.44-0.02-0.51c0.02-0.07,0.15-0.19,0.15-0.23c0-0.04-0.13-0.26-0.11-0.28
		c0.01-0.02,0.13-0.3,0.18-0.35c0.06-0.05,0.33-0.16,0.33-0.16s0.12-0.3,0.34-0.39c0.23-0.1,0.72-0.2,0.72-0.2s0.2-0.27,0.38-0.33
		c0.18-0.06,1.07,0.01,1.07,0.01s0.17-0.1,0.33-0.06c0.16,0.04,0.52,0.14,0.52,0.14s0.25-0.1,0.41-0.04
		c0.17,0.06,1.13,0.82,1.13,0.82s0.36,0.14,0.45,0.26c0.09,0.11,0.62,1.03,0.64,1.25C99.54,61.08,99.21,61.86,99.21,61.86
		L99.21,61.86z"/>
</g>
</svg>
